<?xml version="1.0" standalone="no"?>
<!DOCTYPE svg PUBLIC "-//W3C//DTD SVG 20010904//EN"
 "http://www.w3.org/TR/2001/REC-SVG-20010904/DTD/svg10.dtd">
<svg version="1.0" xmlns="http://www.w3.org/2000/svg"
 width="280.000000pt" height="280.000000pt" viewBox="0 0 280.000000 280.000000"
 preserveAspectRatio="xMidYMid meet">
<metadata>
Created by potrace 1.14, written by Peter Selinger 2001-2017
</metadata>
<g transform="translate(0.000000,280.000000) scale(0.100000,-0.100000)"
fill="#000000" stroke="none">
<path d="M1575 2708 c19 -12 18 -13 -10 -19 -28 -6 -27 -7 10 -8 42 -1 120
-42 130 -69 3 -8 0 -10 -6 -6 -6 4 -15 0 -20 -7 -7 -11 -12 -10 -29 7 l-21 21
-67 -23 c-37 -12 -85 -30 -107 -40 -22 -10 -44 -18 -50 -18 -20 -2 -75 -29
-75 -37 0 -4 5 -11 10 -14 6 -4 9 -1 8 6 -2 8 8 14 25 14 l28 1 -38 -33 c-21
-18 -45 -35 -53 -38 -8 -2 -20 -13 -25 -23 -27 -50 -77 -121 -89 -125 -7 -3
-16 -18 -19 -33 -5 -26 -4 -27 8 -11 7 10 19 20 27 21 7 1 34 13 60 25 35 17
45 27 41 39 -5 14 -3 15 7 5 15 -14 55 2 45 17 -3 6 0 7 8 4 8 -3 23 6 34 20
21 26 93 62 93 45 0 -5 -3 -9 -7 -9 -27 -1 -134 -143 -119 -158 5 -4 55 30 56
39 0 3 7 14 15 25 14 17 14 15 0 -14 -9 -18 -13 -37 -10 -42 3 -6 -1 -10 -9
-10 -9 0 -16 -8 -16 -17 0 -10 -9 -29 -20 -43 -11 -14 -20 -29 -20 -35 0 -5 9
1 20 15 10 14 22 21 27 17 4 -5 1 -12 -7 -17 -8 -6 -13 -10 -10 -11 3 0 13 -2
22 -4 10 -2 22 4 28 13 5 10 10 14 10 10 0 -4 -20 -42 -45 -84 -25 -42 -42
-81 -38 -86 3 -7 1 -8 -5 -4 -20 12 -105 -186 -101 -234 3 -35 -1 -83 -8 -77
-3 4 -12 -5 -19 -19 -31 -59 -1 -342 45 -434 8 -15 -10 -1 -43 32 -31 31 -56
52 -56 46 0 -5 -7 -8 -15 -4 -22 8 -18 -9 8 -36 12 -13 19 -19 15 -14 -5 6 -8
17 -8 25 0 9 18 -2 45 -29 25 -25 43 -51 40 -58 -3 -7 0 -10 6 -6 6 3 24 -6
40 -22 16 -15 29 -23 29 -16 0 6 -4 14 -10 17 -5 3 -15 16 -21 28 -10 18 -6
17 20 -7 17 -17 31 -35 31 -40 0 -6 12 -19 28 -29 15 -11 38 -34 52 -53 16
-21 34 -34 48 -34 13 0 20 4 17 10 -4 6 -9 8 -13 6 -8 -4 -14 49 -15 129 -1
87 13 205 30 246 19 48 26 46 12 -4 -19 -68 -27 -171 -15 -197 14 -32 76 -121
96 -138 72 -60 73 -59 31 22 -35 68 -39 82 -39 153 l0 78 19 -75 c24 -93 94
-237 123 -252 19 -10 20 -10 7 6 -12 14 -12 19 -2 25 10 7 10 15 -3 39 -22 42
-20 52 4 22 15 -18 18 -20 13 -6 -4 13 -3 17 5 12 16 -10 15 0 -2 27 -7 12
-17 36 -20 52 -5 24 0 19 24 -22 33 -57 51 -73 25 -22 -16 29 -15 30 3 20 10
-5 35 -29 56 -53 36 -42 37 -42 30 -13 -3 17 -15 49 -24 72 -41 95 -51 301
-19 379 7 16 13 31 14 34 4 19 37 70 45 70 5 0 16 13 25 30 9 17 36 41 63 56
101 55 124 70 133 87 6 9 15 15 20 11 6 -4 6 -11 -2 -20 -10 -12 -9 -13 5 -8
9 3 16 10 16 15 0 5 7 9 15 9 8 0 20 10 27 23 12 21 12 21 20 -13 5 -19 13
-59 18 -89 18 -102 120 -273 142 -239 10 17 10 31 0 24 -4 -2 -8 19 -8 47 -1
29 1 40 3 25 2 -16 7 -28 11 -28 4 0 18 24 31 53 13 28 29 55 35 59 5 4 12 26
14 50 13 131 -8 208 -109 412 -21 43 -39 84 -39 92 0 16 -165 191 -194 206
-15 7 -11 0 12 -24 17 -19 32 -38 32 -42 0 -5 -10 2 -23 16 -12 13 -31 27 -41
31 -11 4 -16 13 -12 23 3 8 2 12 -4 9 -6 -3 -10 -2 -10 4 0 5 -15 20 -32 32
l-33 23 33 -37 c30 -36 46 -65 20 -39 -29 29 -25 8 7 -34 19 -25 35 -51 35
-57 -1 -11 -10 -1 -37 40 -8 11 -7 4 2 -17 13 -35 71 -255 77 -295 2 -12 -2
-19 -9 -18 -9 2 -13 -12 -13 -44 0 -65 -15 -44 -35 52 -10 44 -23 83 -29 87
-8 5 -7 8 2 8 6 0 12 10 12 23 0 18 -2 19 -10 7 -7 -11 -10 -5 -10 24 0 52
-11 40 -12 -13 0 -23 -4 -41 -8 -41 -5 0 -7 -15 -5 -34 1 -19 -3 -46 -10 -60
-9 -17 -10 -26 -2 -29 12 -4 -10 -97 -24 -97 -4 0 -4 13 1 29 22 78 5 431 -21
431 -5 0 -9 -6 -9 -12 -1 -12 -22 38 -37 84 -5 17 -47 33 -63 23 -6 -4 -10
-14 -10 -23 0 -9 -5 -24 -11 -32 -8 -12 -10 -9 -6 12 4 27 4 27 -44 -13 -60
-50 -64 -56 -49 -74 10 -12 9 -15 -4 -15 -10 0 -15 -4 -11 -9 3 -6 -3 -14 -12
-20 -10 -6 -14 -11 -9 -11 5 0 2 -8 -7 -18 -25 -27 -93 -182 -69 -156 11 11
23 30 26 42 4 12 12 22 17 22 5 0 9 7 9 16 0 8 4 13 8 10 5 -3 15 7 23 22 7
15 21 39 31 53 10 14 14 30 10 35 -4 4 1 2 11 -5 10 -8 14 -17 10 -20 -4 -3
-32 -54 -62 -113 -30 -59 -57 -109 -60 -110 -13 -6 -62 -89 -115 -197 -42 -83
-55 -118 -50 -137 8 -32 14 -25 19 20 1 19 30 86 64 147 34 62 61 116 61 120
0 3 7 12 15 19 8 7 15 11 15 8 0 -10 -78 -177 -98 -208 -12 -19 -22 -41 -22
-48 0 -7 -15 -42 -34 -78 -28 -52 -35 -60 -38 -42 -3 17 -5 12 -9 -14 l-5 -37
30 19 c17 10 34 32 38 48 4 15 31 66 59 113 28 46 69 114 92 151 22 37 42 66
44 64 5 -4 -16 -59 -25 -66 -24 -17 -94 -155 -98 -191 -3 -24 -8 -48 -12 -54
-3 -5 3 -3 13 5 13 10 5 -10 -22 -60 -64 -119 -124 -306 -126 -394 -1 -41 -5
-72 -10 -69 -4 2 1 -20 12 -49 10 -29 22 -66 26 -82 5 -25 4 -28 -8 -17 -45
37 -84 216 -54 246 16 15 13 50 -3 40 -4 -3 -8 5 -8 18 1 12 -2 38 -5 57 -3
19 -6 42 -7 50 -1 8 -6 -3 -11 -25 -11 -55 -11 -183 0 -223 6 -19 6 -32 1 -32
-16 0 -52 138 -48 179 2 22 0 37 -4 35 -5 -3 -8 5 -8 18 0 16 3 19 9 10 5 -8
12 21 20 75 6 48 23 126 37 172 14 45 23 85 21 87 -6 7 -45 -102 -59 -166 -8
-36 -13 -47 -16 -33 -4 28 39 200 74 291 15 41 21 68 14 70 -5 2 -10 8 -10 13
0 6 5 7 12 3 8 -5 9 0 6 14 -4 12 -2 22 3 22 5 0 9 5 9 10 0 7 -7 7 -21 -1
-15 -8 -24 -8 -32 0 -8 8 -6 11 7 11 9 0 15 4 12 8 -3 5 4 8 15 8 15 -1 26 12
42 49 12 28 27 56 34 63 7 7 13 19 13 26 0 8 7 19 15 26 18 15 18 10 5 -24 -5
-14 -8 -26 -6 -26 11 0 48 74 66 131 10 35 26 73 34 84 16 21 17 24 -11 -69
-10 -32 14 -9 50 47 29 45 141 155 168 165 12 5 11 62 -1 62 -5 0 -10 -5 -10
-11 0 -6 -7 -9 -15 -6 -8 4 -17 2 -20 -4 -4 -5 -11 -6 -17 -3 -6 4 -5 10 3 15
10 6 7 9 -12 9 -14 0 -34 -6 -45 -14 -18 -14 -18 -15 -1 -21 9 -4 17 -14 17
-22 0 -11 -7 -7 -21 11 -11 14 -24 24 -27 22 -4 -2 -16 3 -27 11 -16 13 -17
15 -2 10 9 -4 17 -2 17 3 0 5 7 7 15 4 27 -11 36 6 19 34 -16 28 -122 102
-146 102 -7 0 -5 -6 7 -12z m65 -182 c0 -7 -8 -20 -17 -27 -16 -13 -17 -12 -5
3 8 9 11 22 7 28 -3 5 -1 10 4 10 6 0 11 -6 11 -14z m240 -37 c-12 -41 -24
-53 -14 -14 7 32 13 45 19 45 2 0 0 -14 -5 -31z m-286 -22 c-8 -4 -14 -19 -14
-32 0 -14 -6 -25 -13 -25 -7 0 -24 -8 -37 -17 -45 -31 -52 -22 -15 19 20 22
34 46 31 54 -3 7 0 16 6 20 7 4 8 3 4 -4 -4 -7 -3 -12 2 -12 6 0 13 7 16 16 5
12 8 13 20 2 12 -11 12 -14 0 -21z m135 -16 c-10 -23 -16 -27 -26 -19 -15 12
-18 32 -4 23 6 -3 15 4 21 16 17 31 24 15 9 -20z m-231 3 c-9 -9 -22 -14 -30
-11 -8 3 -4 8 12 15 35 15 37 14 18 -4z m358 -40 c-4 -9 -9 -15 -11 -12 -3 3
-3 13 1 22 4 9 9 15 11 12 3 -3 3 -13 -1 -22z m-455 -17 c-7 -7 -14 -8 -21 -1
-6 6 -2 10 12 11 16 2 18 -1 9 -10z m399 -12 c14 -19 14 -19 -2 -6 -10 7 -18
18 -18 24 0 6 1 8 3 6 1 -2 9 -13 17 -24z m140 -14 c0 -18 3 -22 9 -13 12 19
21 -19 21 -87 0 -62 -96 -363 -132 -411 -11 -15 -21 -45 -21 -68 -1 -22 -5
-38 -9 -36 -8 5 -9 -1 -30 -111 -14 -75 -18 -370 -6 -420 4 -16 -2 -3 -14 30
-18 49 -22 83 -22 188 -1 128 -7 130 -26 9 -9 -54 -9 -53 -5 23 3 58 18 127
55 249 36 121 50 185 49 225 -1 46 -2 51 -9 29 -4 -15 -15 -35 -24 -44 -9 -8
-16 -24 -16 -35 0 -10 -7 -19 -15 -19 -15 0 -3 27 51 117 8 12 17 47 20 77 4
31 10 56 14 56 3 0 5 15 4 33 l-3 32 8 -34 c5 -18 5 -47 1 -63 -13 -44 -22
-177 -11 -153 20 43 64 223 65 266 1 25 7 53 14 62 14 16 18 63 9 109 -4 20
-2 25 9 21 8 -3 14 -17 14 -32z m-580 15 c0 -2 -7 -7 -16 -10 -8 -3 -12 -2 -9
4 6 10 25 14 25 6z m896 -64 c-2 -2 -15 8 -29 22 -14 14 -22 28 -19 31 4 4 17
-6 29 -21 12 -16 21 -30 19 -32z m-346 45 c0 -2 -10 -12 -21 -23 -22 -19 -22
-19 -10 4 10 18 31 31 31 19z m218 -42 c-3 -3 -9 2 -12 12 -6 14 -5 15 5 6 7
-7 10 -15 7 -18z m156 -61 c3 -8 2 -12 -4 -9 -6 3 -10 10 -10 16 0 14 7 11 14
-7z m-104 -64 c-8 -5 -19 -10 -25 -10 -5 0 -3 5 5 10 8 5 20 10 25 10 6 0 3
-5 -5 -10z m-460 -24 c0 -2 -8 -10 -17 -17 -16 -13 -17 -12 -4 4 13 16 21 21
21 13z m470 -143 c0 -51 -5 -77 -21 -102 -25 -42 -36 -34 -14 10 12 23 16 45
11 76 -3 25 -2 43 4 43 6 0 10 9 10 20 0 11 2 20 5 20 3 0 5 -30 5 -67z m-740
31 c0 -8 -19 -13 -24 -6 -3 5 1 9 9 9 8 0 15 -2 15 -3z m-41 -71 c10 9 11 8 5
-8 -11 -28 -46 -65 -55 -59 -5 2 -16 -21 -25 -51 -21 -74 -28 -66 -8 10 22 83
42 119 58 106 9 -7 16 -7 25 2z m696 -49 c-16 -52 -30 -74 -19 -29 10 41 23
75 28 75 3 0 -1 -21 -9 -46z m172 -106 c-3 -7 -5 -2 -5 12 0 14 2 19 5 13 2
-7 2 -19 0 -25z m-926 -31 c-10 -9 -11 -8 -5 6 3 10 9 15 12 12 3 -3 0 -11 -7
-18z m996 -129 c-2 -13 -4 -5 -4 17 -1 22 1 32 4 23 2 -10 2 -28 0 -40z m-550
-40 c-3 -8 -6 -5 -6 6 -1 11 2 17 5 13 3 -3 4 -12 1 -19z m-10 -200 c-2 -35
-3 -9 -3 57 0 66 1 94 3 63 2 -32 2 -86 0 -120z m-492 -86 c-5 -5 -25 69 -24
88 0 8 7 -7 14 -35 8 -27 12 -51 10 -53z m109 -167 c3 -8 1 -15 -4 -15 -6 0
-10 7 -10 15 0 8 2 15 4 15 2 0 6 -7 10 -15z"/>
<path d="M1371 1974 c0 -11 3 -14 6 -6 3 7 2 16 -1 19 -3 4 -6 -2 -5 -13z"/>
<path d="M1340 2699 c0 -5 31 -6 68 -3 44 4 76 2 90 -5 18 -10 21 -9 16 4 -5
13 -22 15 -90 14 -46 -1 -84 -6 -84 -10z"/>
<path d="M1354 2669 c-34 -5 -101 -22 -150 -38 -84 -27 -86 -29 -39 -25 28 2
64 8 80 14 45 14 165 28 170 19 3 -4 -18 -12 -46 -19 -79 -19 -51 -22 37 -4
43 9 99 20 124 23 l45 7 -28 12 c-41 17 -123 22 -193 11z"/>
<path d="M1510 2614 l-25 -15 25 7 c28 7 35 12 29 18 -2 2 -15 -2 -29 -10z"/>
<path d="M1420 2597 c0 -5 -10 -5 -21 -2 -19 6 -20 5 -8 -8 11 -11 20 -12 44
-4 44 14 51 25 16 23 -17 0 -31 -5 -31 -9z"/>
<path d="M1910 2576 c0 -2 8 -10 18 -17 15 -13 16 -12 3 4 -13 16 -21 21 -21
13z"/>
<path d="M1977 2559 c7 -7 15 -10 18 -7 3 3 -2 9 -12 12 -14 6 -15 5 -6 -5z"/>
<path d="M2010 2468 c0 -13 59 -153 60 -141 0 19 -31 106 -46 128 -8 11 -14
17 -14 13z"/>
<path d="M1705 2373 l-18 -28 27 24 c28 26 31 31 17 31 -5 0 -17 -12 -26 -27z"/>
<path d="M1343 2310 c-3 -11 -10 -17 -16 -13 -6 3 -7 1 -3 -5 10 -16 11 -16
30 13 10 15 12 25 5 25 -6 0 -13 -9 -16 -20z"/>
<path d="M1226 2244 c-15 -14 -22 -34 -12 -34 2 0 11 11 20 25 19 28 15 33 -8
9z"/>
<path d="M1336 2200 c-31 -64 -20 -64 22 0 24 37 28 50 17 50 -8 0 -26 -22
-39 -50z"/>
<path d="M1185 2229 c-4 -6 -5 -12 -2 -15 2 -3 7 2 10 11 7 17 1 20 -8 4z"/>
<path d="M1113 2199 c-13 -5 -23 -11 -23 -14 0 -4 4 -4 9 -1 5 4 8 -1 7 -10
-1 -9 -24 -36 -50 -60 -26 -24 -45 -48 -41 -54 3 -6 11 -8 16 -4 5 3 6 10 3
16 -4 7 -2 8 5 4 6 -4 18 -2 26 4 17 14 79 119 74 124 -2 2 -14 0 -26 -5z"/>
<path d="M1195 2190 c-3 -5 -3 -10 1 -10 4 0 -1 -6 -12 -14 -10 -8 -17 -16
-14 -19 3 -2 16 6 29 18 14 14 19 25 13 29 -6 3 -13 2 -17 -4z"/>
<path d="M1069 2153 c-13 -17 -13 -17 6 -3 11 8 22 16 24 17 2 2 0 3 -6 3 -6
0 -17 -8 -24 -17z"/>
<path d="M1402 2148 c2 -5 8 -9 13 -9 5 0 11 4 13 9 1 5 -4 9 -13 9 -9 0 -14
-4 -13 -9z"/>
<path d="M1103 2106 c-65 -100 -164 -340 -122 -296 17 18 79 140 79 156 0 6 6
11 14 11 16 0 11 -17 -29 -96 -14 -28 -21 -51 -15 -51 18 0 100 181 100 222 0
9 -5 20 -12 24 -6 4 -8 3 -4 -4 3 -6 2 -13 -2 -16 -5 -3 -9 4 -8 15 0 11 7 23
14 28 8 5 12 16 10 24 -2 12 -9 7 -25 -17z m-3 -81 c-7 -8 -17 -15 -22 -15 -6
0 -5 7 2 15 7 8 17 15 22 15 6 0 5 -7 -2 -15z"/>
<path d="M2110 2111 c0 -17 2 -31 4 -31 8 0 13 51 5 56 -5 3 -9 -9 -9 -25z"/>
<path d="M1173 2104 c0 -23 1 -24 9 -10 7 12 7 21 0 28 -6 6 -9 0 -9 -18z"/>
<path d="M1376 2099 c-21 -35 -17 -37 12 -4 12 13 18 26 13 29 -4 3 -15 -8
-25 -25z"/>
<path d="M1145 2097 c-4 -10 -3 -28 2 -39 13 -29 21 -11 13 27 -6 25 -8 27
-15 12z"/>
<path d="M1296 2093 c-6 -14 -5 -15 5 -6 7 7 10 15 7 18 -3 3 -9 -2 -12 -12z"/>
<path d="M1561 2064 c-17 -37 -8 -39 13 -4 9 17 13 30 8 30 -5 0 -14 -12 -21
-26z"/>
<path d="M1030 2035 c-13 -14 -20 -25 -16 -25 4 0 0 -10 -8 -22 -9 -12 -16
-27 -16 -33 1 -5 8 4 17 20 9 17 16 32 15 35 0 3 9 15 20 28 12 12 19 22 16
22 -2 0 -15 -11 -28 -25z"/>
<path d="M1151 2014 c0 -11 3 -14 6 -6 3 7 2 16 -1 19 -3 4 -6 -2 -5 -13z"/>
<path d="M959 1993 c-13 -16 -12 -17 4 -4 9 7 17 15 17 17 0 8 -8 3 -21 -13z"/>
<path d="M1086 1898 l-18 -33 21 25 c18 22 26 40 18 40 -1 0 -11 -15 -21 -32z"/>
<path d="M911 1884 c0 -11 3 -14 6 -6 3 7 2 16 -1 19 -3 4 -6 -2 -5 -13z"/>
<path d="M1096 1856 c-34 -58 -33 -66 3 -32 16 15 29 38 29 52 0 13 -2 24 -3
24 -2 0 -15 -20 -29 -44z"/>
<path d="M622 1793 c-6 -20 -7 -32 -2 -27 10 10 25 64 18 64 -3 0 -10 -16 -16
-37z"/>
<path d="M726 1803 c-6 -14 -5 -15 5 -6 7 7 10 15 7 18 -3 3 -9 -2 -12 -12z"/>
<path d="M1065 1775 c-33 -29 -43 -42 -29 -39 23 6 91 70 83 78 -2 3 -27 -15
-54 -39z"/>
<path d="M656 1775 c-9 -26 -7 -32 5 -12 6 10 9 21 6 23 -2 3 -7 -2 -11 -11z"/>
<path d="M886 1768 c-3 -13 -5 -52 -4 -88 l1 -65 7 85 c8 88 7 107 -4 68z"/>
<path d="M1196 1764 c-4 -14 -5 -28 -3 -31 3 -2 8 8 11 23 4 14 5 28 3 31 -3
2 -8 -8 -11 -23z"/>
<path d="M986 1763 c-6 -14 -5 -15 5 -6 7 7 10 15 7 18 -3 3 -9 -2 -12 -12z"/>
<path d="M956 1753 c-2 -10 -8 -29 -11 -43 -5 -16 -4 -22 3 -15 5 6 12 25 15
43 7 34 2 44 -7 15z"/>
<path d="M527 1739 c-4 -15 -1 -19 11 -17 21 4 29 38 9 38 -8 0 -17 -9 -20
-21z"/>
<path d="M605 1717 c-4 -19 -5 -47 -3 -63 2 -21 6 -11 14 34 10 63 0 90 -11
29z"/>
<path d="M1058 1718 c-17 -21 -24 -48 -13 -48 3 0 10 12 15 26 6 14 14 22 20
19 6 -3 7 1 4 9 -8 20 -6 20 -26 -6z"/>
<path d="M640 1715 c0 -8 2 -15 4 -15 2 0 6 7 10 15 3 8 1 15 -4 15 -6 0 -10
-7 -10 -15z"/>
<path d="M1446 1705 c-9 -26 -7 -32 5 -12 6 10 9 21 6 23 -2 3 -7 -2 -11 -11z"/>
<path d="M530 1691 c0 -61 26 -102 45 -71 3 6 -1 7 -9 4 -13 -5 -15 2 -13 40
2 32 -1 46 -10 46 -7 0 -13 -8 -13 -19z"/>
<path d="M750 1700 c0 -5 5 -10 11 -10 5 0 7 5 4 10 -3 6 -8 10 -11 10 -2 0
-4 -4 -4 -10z"/>
<path d="M1101 1683 c0 -17 -5 -35 -11 -38 -5 -3 -10 -12 -10 -18 0 -7 4 -6
11 3 8 12 9 9 4 -10 -4 -14 -7 -34 -6 -45 0 -16 -2 -17 -9 -5 -5 8 -10 23 -10
33 0 10 -5 15 -10 12 -7 -4 -7 -13 0 -25 6 -11 10 -23 9 -27 -4 -20 14 -74 21
-63 5 8 12 -1 19 -23 9 -27 61 -100 61 -85 0 2 -9 26 -19 53 -17 44 -29 112
-44 240 l-4 30 -2 -32z m-7 -149 c3 -8 2 -12 -4 -9 -6 3 -10 10 -10 16 0 14 7
11 14 -7z"/>
<path d="M1537 1682 c-19 -20 -23 -37 -7 -27 10 6 33 45 27 45 -2 0 -11 -8
-20 -18z"/>
<path d="M637 1683 c-4 -3 -7 -11 -7 -17 0 -6 5 -5 12 2 6 6 9 14 7 17 -3 3
-9 2 -12 -2z"/>
<path d="M722 1677 c-7 -8 -9 -17 -6 -20 6 -6 16 -62 15 -82 -2 -34 -15 -75
-22 -75 -5 0 -9 -4 -9 -10 0 -17 17 -11 49 16 34 28 43 18 11 -11 -11 -10 -20
-25 -21 -34 0 -10 -2 -12 -6 -4 -3 10 -10 10 -25 2 -15 -8 -17 -14 -9 -22 6
-6 11 -20 10 -32 0 -20 0 -20 -9 0 -5 12 -9 15 -9 5 -1 -10 -4 -11 -12 -3 -7
7 -11 41 -10 82 1 53 -2 70 -11 69 -7 -2 -12 3 -10 10 1 8 -2 11 -8 7 -15 -9
-12 -120 4 -158 7 -18 26 -43 41 -57 l27 -25 -6 25 c-4 14 -4 20 1 14 14 -19
43 -12 43 10 0 12 9 47 20 80 11 32 18 62 15 66 -3 4 1 23 9 42 10 23 12 44 6
68 -8 35 -8 35 -9 -11 -1 -40 -4 -48 -23 -52 -21 -6 -22 -5 -5 8 25 18 19 73
-9 92 -18 11 -23 11 -32 0z m25 -69 c-3 -8 -6 -5 -6 6 -1 11 2 17 5 13 3 -3 4
-12 1 -19z m-10 -190 c-3 -8 -6 -5 -6 6 -1 11 2 17 5 13 3 -3 4 -12 1 -19z"/>
<path d="M1060 1665 c-8 -9 -8 -15 -2 -15 12 0 26 19 19 26 -2 2 -10 -2 -17
-11z"/>
<path d="M1478 1666 c-18 -13 -22 -30 -32 -116 l-5 -45 13 35 c8 19 23 59 35
88 21 53 19 61 -11 38z"/>
<path d="M1203 1610 c0 -25 2 -35 4 -22 2 12 2 32 0 45 -2 12 -4 2 -4 -23z"/>
<path d="M2195 1630 c2 -13 16 -40 30 -61 14 -21 25 -46 25 -56 0 -11 3 -14
10 -7 18 18 -1 81 -36 115 -31 30 -33 31 -29 9z"/>
<path d="M632 1615 c0 -16 2 -22 5 -12 2 9 2 23 0 30 -3 6 -5 -1 -5 -18z"/>
<path d="M676 1621 c-10 -11 -16 -28 -13 -38 4 -17 4 -17 11 2 4 11 12 28 17
38 12 22 6 22 -15 -2z"/>
<path d="M896 1580 c3 -19 5 -43 5 -52 0 -10 3 -17 7 -16 4 1 24 -15 45 -35
33 -32 38 -41 33 -71 -4 -22 -1 -38 8 -45 19 -16 22 -7 25 58 2 38 -1 51 -9
46 -7 -4 -11 -1 -9 6 5 37 -4 61 -30 88 -23 24 -32 27 -40 17 -6 -7 -8 -16 -4
-19 3 -4 1 -7 -5 -7 -7 0 -12 8 -12 18 0 9 -5 24 -10 32 -7 11 -8 5 -4 -20z
m79 -40 c3 -5 2 -10 -4 -10 -5 0 -13 5 -16 10 -3 6 -2 10 4 10 5 0 13 -4 16
-10z"/>
<path d="M1411 1584 c0 -11 3 -14 6 -6 3 7 2 16 -1 19 -3 4 -6 -2 -5 -13z"/>
<path d="M1166 1475 c3 -27 16 -74 30 -104 26 -57 44 -64 25 -10 -6 18 -11 46
-12 63 0 17 -5 40 -10 51 -7 16 -8 12 -6 -17 4 -49 -8 -36 -22 22 l-10 45 5
-50z"/>
<path d="M1986 1453 c7 -31 18 -61 23 -66 13 -13 13 -10 2 31 -11 37 0 41 26
10 10 -13 25 -24 32 -26 8 -2 23 -14 33 -27 11 -14 25 -25 31 -25 8 0 7 4 -1
12 -7 7 -12 20 -12 30 0 16 -77 81 -126 106 -21 11 -21 11 -8 -45z"/>
<path d="M829 1483 c5 -10 5 -26 0 -41 -7 -18 -6 -23 3 -20 20 7 22 64 3 72
-12 4 -14 2 -6 -11z"/>
<path d="M922 1470 c9 -26 13 -30 16 -16 2 10 -3 26 -12 35 -15 15 -16 13 -4
-19z"/>
<path d="M2357 1449 c-16 -22 -26 -46 -23 -55 7 -18 -7 -49 -36 -81 -12 -12
-17 -27 -13 -34 5 -7 4 -10 -3 -5 -6 3 -13 -3 -17 -14 -5 -17 -10 -19 -21 -9
-11 9 -14 8 -14 -5 0 -9 5 -16 12 -16 9 0 9 -3 1 -11 -12 -12 5 -74 33 -116 8
-13 12 -23 9 -23 -4 0 1 -10 9 -22 22 -32 20 -48 -11 -81 -16 -17 -23 -27 -17
-24 11 6 34 -32 41 -67 2 -11 11 -29 21 -39 9 -11 16 -21 14 -23 -1 -2 5 -18
14 -35 8 -17 13 -33 10 -37 -3 -3 3 -12 14 -19 11 -8 18 -19 15 -24 -3 -5 0
-6 8 -3 9 3 16 -3 20 -15 3 -12 13 -21 22 -21 14 0 13 5 -9 27 -15 14 -25 32
-22 39 3 7 2 15 -2 19 -4 4 -7 10 -8 13 0 4 -6 20 -12 35 -7 16 -12 32 -12 36
0 4 -12 18 -26 32 -14 13 -30 33 -36 44 -7 14 -1 11 17 -8 15 -16 29 -26 31
-24 2 2 0 28 -6 57 -5 29 -10 80 -11 114 -1 46 -3 55 -9 36 -6 -18 -8 -5 -8
45 0 43 2 62 7 50 5 -13 10 12 15 70 4 50 11 107 15 127 5 22 5 36 0 32 -5 -3
-9 0 -9 5 0 6 4 11 9 11 8 0 25 49 19 55 -2 2 -16 -14 -31 -36z"/>
<path d="M962 1425 c0 -16 2 -22 5 -12 2 9 2 23 0 30 -3 6 -5 -1 -5 -18z"/>
<path d="M875 1430 c-3 -5 -1 -10 4 -10 6 0 11 5 11 10 0 6 -2 10 -4 10 -3 0
-8 -4 -11 -10z"/>
<path d="M1047 1418 c-2 -7 9 -40 25 -73 l30 -60 -36 34 c-20 19 -36 30 -36
25 0 -6 11 -21 25 -34 14 -13 25 -29 25 -37 0 -7 9 -30 20 -50 11 -21 20 -34
20 -30 0 4 10 -1 22 -12 23 -22 38 -19 38 6 0 13 3 13 15 3 9 -7 17 -11 19 -9
2 2 -8 13 -22 23 -15 12 -22 14 -17 5 5 -8 -4 -3 -18 10 -15 14 -27 27 -27 29
0 3 9 -3 20 -13 11 -10 20 -13 20 -7 0 6 -5 14 -10 17 -6 4 -19 25 -30 48
l-20 42 22 -30 c31 -39 104 -115 87 -89 -34 51 -87 121 -116 155 -18 20 -33
42 -33 48 0 15 -17 14 -23 -1z"/>
<path d="M894 1409 c-4 -7 -3 -9 4 -5 5 3 13 0 15 -6 4 -9 6 -10 6 -1 1 17
-16 25 -25 12z"/>
<path d="M886 1375 c4 -8 8 -15 10 -15 2 0 4 7 4 15 0 8 -4 15 -10 15 -5 0 -7
-7 -4 -15z"/>
<path d="M924 1375 c-4 -9 -2 -26 3 -38 9 -21 10 -20 15 11 5 35 -8 54 -18 27z"/>
<path d="M824 1306 c5 -36 4 -62 -3 -70 -16 -19 -32 -117 -25 -149 5 -23 8
-26 20 -16 8 6 14 16 14 21 0 5 6 15 13 23 14 14 11 85 -4 85 -5 0 -9 5 -9 10
0 6 6 10 14 10 8 0 17 -16 21 -37 l8 -38 13 55 c12 49 10 100 -3 100 -10 0
-34 -30 -29 -38 2 -4 1 -14 -5 -22 -6 -10 -8 7 -6 49 1 47 -2 65 -12 69 -11 4
-12 -6 -7 -52z"/>
<path d="M967 1344 c4 -12 3 -15 -5 -10 -9 5 -12 -7 -12 -41 0 -43 1 -46 16
-31 13 12 14 20 5 37 -8 14 -8 21 -1 21 5 0 10 -8 10 -17 0 -12 3 -14 11 -6
16 16 7 57 -13 61 -13 3 -16 -1 -11 -14z"/>
<path d="M720 1340 c0 -5 5 -10 10 -10 6 0 10 5 10 10 0 6 -4 10 -10 10 -5 0
-10 -4 -10 -10z"/>
<path d="M2032 1334 c10 -10 20 -16 22 -13 3 3 -5 11 -17 18 -21 13 -21 12 -5
-5z"/>
<path d="M681 1314 c0 -11 3 -14 6 -6 3 7 2 16 -1 19 -3 4 -6 -2 -5 -13z"/>
<path d="M1008 1302 c-3 -11 1 -32 8 -48 12 -25 13 -25 8 -4 -7 25 -7 25 15 6
26 -24 27 -11 1 32 -23 37 -26 39 -32 14z"/>
<path d="M727 1303 c-3 -5 -1 -17 4 -28 7 -17 8 -17 8 8 1 27 -4 34 -12 20z"/>
<path d="M699 1268 c0 -22 -1 -22 -9 -3 -7 15 -9 9 -7 -22 1 -24 6 -43 10 -43
5 0 5 -5 2 -10 -10 -15 5 -111 16 -105 4 3 11 -6 15 -20 6 -26 23 -35 25 -12
0 6 0 33 -1 58 -1 48 -28 159 -29 125 -1 -15 -4 -17 -12 -9 -8 8 -8 17 0 31 7
14 8 23 1 27 -6 3 -10 -4 -11 -17z"/>
<path d="M921 1254 c0 -11 3 -14 6 -6 3 7 2 16 -1 19 -3 4 -6 -2 -5 -13z"/>
<path d="M985 1259 c-4 -6 -5 -12 -2 -15 2 -3 7 2 10 11 7 17 1 20 -8 4z"/>
<path d="M647 1219 c4 -13 8 -18 11 -10 2 7 -1 18 -6 23 -8 8 -9 4 -5 -13z"/>
<path d="M961 1214 c0 -11 3 -14 6 -6 3 7 2 16 -1 19 -3 4 -6 -2 -5 -13z"/>
<path d="M2211 934 c-38 -12 -58 -38 -39 -51 7 -4 14 -17 14 -28 1 -11 5 -29
8 -40 7 -19 7 -19 -7 -2 -13 16 -15 16 -21 2 -8 -21 10 -54 48 -87 33 -29 70
-44 60 -25 -3 7 1 4 9 -5 8 -10 17 -15 20 -11 4 3 7 1 7 -5 0 -7 7 -12 16 -12
9 0 12 5 8 13 -6 9 -4 9 7 1 20 -16 126 -54 161 -58 39 -5 24 7 -32 24 -107
33 -143 72 -198 223 l-27 72 -34 -11z m36 -155 c17 -27 30 -49 28 -49 -10 0
-48 48 -66 82 -21 41 -25 64 -6 34 7 -10 26 -41 44 -67z m-2 -49 c10 -11 16
-20 13 -20 -3 0 -13 9 -23 20 -10 11 -16 20 -13 20 3 0 13 -9 23 -20z"/>
<path d="M1940 842 c0 -8 61 -34 67 -29 1 2 -13 11 -32 20 -19 9 -35 13 -35 9z"/>
</g>
</svg>
